# xmcd CD database file
#
# Track frame offsets:
#	150
#	10920
#	24160
#	36185
#	54010
#	70015
#	88340
#	104725
#	119560
#	139962
#	157802
#	175547
#	208867
#	222560
#
# Disc length: 3214 seconds
#
# Revision: 0
# Processed by: cddbd v1.5PL3 Copyright (c) Steve Scherf et al.
# Submitted via: CDex 1.50
#
DISCID=c10c8c0e
DTITLE=GUITAR WOLF - WOLF ROCK!
DYEAR=2002
DGENRE=Rock
TTITLE0=WOLF ROCK
TTITLE1=ACE OF SPADE
TTITLE2=INDIAN GUITAR
TTITLE3=APACH LEATHER
TTITLE4=RED ROCKABILLY
TTITLE5=MARS TWIST
TTITLE6=SHOOTING STAR NOISE
TTITLE7=J JUPITER JOAN
TTITLE8=MACHIN GUN GUITAR
TTITLE9=JACK THE RIPPER
TTITLE10=RUMBLE
TTITLE11=GLORIA
TTITLE12=INDIAN GUITAR
TTITLE13=RED ROCKABILLY
EXTD=YEAR: 2002
EXTT0=
EXTT1=
EXTT2=
EXTT3=
EXTT4=
EXTT5=
EXTT6=
EXTT7=
EXTT8=
EXTT9=
EXTT10=
EXTT11=
EXTT12=
EXTT13=
PLAYORDER=
